<svg width="1024" height="1024" viewBox="0 0 1024 1024" fill="none" xmlns="http://www.w3.org/2000/svg">
<path d="M991.996 463.896C991.996 502.845 960.453 534.662 921.23 534.662L909.711 534.661V844.328C909.711 920.032 848.271 981.47 772.569 981.47H649.142V671.803C649.142 596.1 587.702 534.661 512 534.661C436.297 534.661 374.858 596.101 374.858 671.803V981.47H251.431C175.727 981.47 114.289 920.03 114.289 844.328V534.661H102.77C63.8216 534.661 32.0039 503.118 32.0039 463.895C32.0039 444.147 40.2322 425.221 55.0432 411.781L419.566 78.5257C471.954 30.5266 552.32 30.5266 604.709 78.5257L969.232 411.781C983.769 424.946 991.996 444.147 991.996 463.895L991.997 463.896H991.996Z" fill="#333333"/>
</svg>
