<svg width="1024" height="1024" viewBox="0 0 1024 1024" fill="none" xmlns="http://www.w3.org/2000/svg">
<path d="M406.595 379.122C414.404 381.209 420.707 385.103 425.615 390.393C434.167 399.573 437.159 411.384 436.019 423.961C435.2 432.867 432.184 442.274 427.737 450.889C420.778 464.401 409.576 477.344 397.431 484.363L395.972 485.145L214.395 589.972C198.11 599.375 179.535 601.282 162.749 596.796C145.887 592.285 130.73 581.337 121.343 565.075L120.561 563.617L15.7774 382.107L15.7297 382.135C8.70366 369.974 5.4688 353.176 6.1881 337.995C6.65306 328.211 8.72353 318.534 12.4194 310.515C17.6929 299.058 26.1973 290.339 38.2625 286.639C45.1733 284.521 52.5531 284.278 60.3342 286.357L406.599 379.13L406.595 379.122ZM381.626 427.125L382.036 426.306L58.0293 339.497L57.9776 340.427C57.6875 346.547 58.5777 352.596 60.6124 356.125C60.5289 356.176 156.633 522.553 165.384 537.722L166.226 539.069C168.452 542.924 172.096 545.531 176.149 546.62C180.262 547.72 184.753 547.295 188.592 545.078L370.074 440.31L371.421 439.468C374.99 437.409 378.809 432.581 381.622 427.125H381.626Z" fill="#333333"/>
<path d="M239.912 364.275C234.305 377.457 219.068 383.593 205.887 377.985C192.705 372.378 186.569 357.141 192.176 343.96C225.383 265.822 281.059 199.532 351.074 153.206C419.073 108.216 500.529 82.0156 588.013 82.0156C706.741 82.0156 814.25 130.153 892.058 207.956C969.865 285.764 1018 393.265 1018 511.993C1018 630.721 969.865 738.227 892.058 816.03C814.246 893.838 706.749 941.967 588.013 941.967C573.655 941.967 562.011 930.323 562.011 915.965C562.011 901.607 573.655 889.963 588.013 889.963C692.399 889.963 786.897 847.656 855.29 779.266C923.687 710.87 965.991 616.375 965.991 511.993C965.991 407.612 923.683 313.117 855.29 244.72C786.893 176.323 692.391 134.02 588.013 134.02C510.969 134.02 439.365 157.009 379.714 196.472C318.105 237.233 269.121 295.552 239.916 364.275H239.912Z" fill="#333333"/>
<path d="M723.158 603.194C733.983 612.557 735.164 628.933 725.801 639.755C716.438 650.576 700.061 651.756 689.24 642.393L560.708 531.598C554.787 526.475 551.75 519.258 551.75 511.998H551.667V257.211C551.667 242.853 563.311 231.209 577.669 231.209C592.027 231.209 603.671 242.853 603.671 257.211V500.191L723.162 603.194H723.158Z" fill="#333333"/>
</svg>
