<svg width="1003" height="1024" viewBox="0 0 1003 1024" fill="none" xmlns="http://www.w3.org/2000/svg">
<path d="M724.912 97.71C724.912 43.7741 681.025 0 626.951 0H247.645C234.845 0 224.657 10.1618 224.657 22.9293V79.7313C224.657 120.379 249.735 155.554 285.524 170.146V342.376C285.524 463.276 384.007 561.507 505.218 561.507C626.428 561.507 724.912 463.276 724.912 342.376C724.912 315.799 724.912 426.276 724.912 97.71ZM505.218 515.648C409.347 515.648 331.5 438.001 331.5 342.376V177.702H678.935V342.376C678.935 438.001 601.089 515.648 505.218 515.648Z" fill="#333333"/>
<path d="M5.48582 997.423C28.7353 880.692 92.2141 778.292 181.032 705.596C268.283 634.202 379.828 591.21 501.3 591.21C569.481 591.21 634.788 604.759 694.348 629.512C756.26 655.047 811.902 692.568 858.662 738.947C893.666 773.862 923.708 813.989 947.218 858.284C970.207 901.537 987.187 948.177 996.852 997.423L1002.08 1024L0 1023.74L5.22459 996.902L5.48582 997.423Z" fill="#333333"/>
</svg>
