<svg width="1024" height="1024" viewBox="0 0 1024 1024" fill="none" xmlns="http://www.w3.org/2000/svg">
<path d="M512.001 991.997C777.097 991.997 992 777.094 992 511.998C992 246.903 777.097 32 512.001 32C246.906 32 32.0029 246.903 32.0029 511.998C32.0029 777.094 246.906 991.997 512.001 991.997Z" fill="white"/>
<path d="M760.139 797.09C752.337 803.923 744.217 810.439 735.771 816.632C673.124 862.792 595.759 889.976 512.042 889.976C428.324 889.976 350.96 862.714 288.312 816.632C279.869 810.439 271.744 803.926 263.863 797.011C286.863 680.885 389.24 593.308 512.042 593.308C581.928 593.308 645.138 621.695 690.975 667.457C725.722 702.197 750.41 746.99 760.142 797.092L760.139 797.09Z" fill="#325EEF"/>
<path d="M512.042 902.038C296.54 902.038 122.003 727.09 122.003 511.999C122.003 296.928 296.974 121.96 512.042 121.96C727.066 121.96 902.005 296.928 902.005 511.999C902.005 725.588 729.113 902.038 512.042 902.038ZM629.089 322.226C629.089 293.923 606.063 270.893 577.756 270.893H379.117C372.458 270.893 367.053 276.293 367.053 282.957V312.821C367.053 334.229 380.237 352.596 398.899 360.287V450.698C398.899 514.168 450.534 565.804 514.001 565.804C577.474 565.804 629.109 514.168 629.109 450.698C629.109 436.698 629.121 494.815 629.089 322.226ZM391.182 295.022H577.756C592.756 295.022 604.961 307.226 604.961 322.226V340.028H418.386C403.386 340.028 391.182 327.823 391.182 312.823V295.022ZM514.004 541.678C463.844 541.678 423.03 500.862 423.03 450.698V364.153H604.99V450.698C604.99 500.865 564.173 541.678 514.007 541.678H514.004ZM512.042 146.085C310.275 146.085 146.128 310.232 146.128 511.999C146.128 710.83 307.079 877.912 512.042 877.912C715.626 877.912 877.877 712.434 877.877 511.999C877.877 310.232 713.76 146.085 512.042 146.085Z" fill="#333333"/>
</svg>
